<?xml version="1.0" encoding="utf-8"?><svg xml:space="preserve" viewBox="0 0 100 100" y="0" x="0" xmlns="http://www.w3.org/2000/svg" id="圖層_1" version="1.1" width="200px" height="200px" xmlns:xlink="http://www.w3.org/1999/xlink" style="width:100%;height:100%;background-size:initial;background-repeat-y:initial;background-repeat-x:initial;background-position-y:initial;background-position-x:initial;background-origin:initial;background-image:initial;background-color:rgb(255, 255, 255);background-clip:initial;background-attachment:initial;animation-play-state:paused" ><g class="ldl-scale" style="transform-origin:50% 50%;transform:rotate(0deg) scale(0.8, 0.8);animation-play-state:paused" ><path stroke-miterlimit="10" stroke-width="3" stroke="#333" fill="#f8b26a" d="M76.185 90h-52.37a4.06 4.06 0 0 1-4.06-4.06V12.06A4.06 4.06 0 0 1 23.815 8h52.369a4.06 4.06 0 0 1 4.06 4.06v73.88A4.059 4.059 0 0 1 76.185 90z" style="stroke:rgb(51, 51, 51);fill:rgb(248, 178, 106);animation-play-state:paused" ></path>
<path stroke-miterlimit="10" stroke-width="3" stroke="#333" fill="#333" d="M80.245 29.839h-60.49v-17.39a4.06 4.06 0 0 1 4.06-4.06h52.369a4.06 4.06 0 0 1 4.06 4.06v17.39z" style="stroke:rgb(51, 51, 51);fill:rgb(51, 51, 51);animation-play-state:paused" ></path>
<path d="M40.645 12.874h34.253v12.481H40.645z" fill="#abbd81" style="fill:rgb(171, 189, 129);animation-play-state:paused" ></path>
<path d="M28.1 38.071h11.234v11.234H28.1z" fill="#333" style="fill:rgb(51, 51, 51);animation-play-state:paused" ></path>
<path d="M44.383 38.071h11.234v11.234H44.383z" fill="#333" style="fill:rgb(51, 51, 51);animation-play-state:paused" ></path>
<path d="M60.666 38.071H71.9v11.234H60.666z" fill="#333" style="fill:rgb(51, 51, 51);animation-play-state:paused" ></path>
<path d="M28.1 54.354h11.234v11.234H28.1z" fill="#333" style="fill:rgb(51, 51, 51);animation-play-state:paused" ></path>
<path d="M44.383 54.354h11.234v11.234H44.383z" fill="#333" style="fill:rgb(51, 51, 51);animation-play-state:paused" ></path>
<path d="M60.666 54.354H71.9v11.234H60.666z" fill="#333" style="fill:rgb(51, 51, 51);animation-play-state:paused" ></path>
<path d="M28.1 70.637h11.234v11.234H28.1z" fill="#333" style="fill:rgb(51, 51, 51);animation-play-state:paused" ></path>
<path d="M44.383 70.637h11.234v11.234H44.383z" fill="#333" style="fill:rgb(51, 51, 51);animation-play-state:paused" ></path>
<path d="M60.666 70.637H71.9v11.234H60.666z" fill="#333" style="fill:rgb(51, 51, 51);animation-play-state:paused" ></path>
<metadata xmlns:d="https://loading.io/stock/" style="animation-play-state:paused" ><d:name style="animation-play-state:paused" >calculator</d:name>
<d:tags style="animation-play-state:paused" >computer,price,cashier,numpad,calculator,business</d:tags>
<d:license style="animation-play-state:paused" >pro</d:license>
<d:slug style="animation-play-state:paused" >2bqu7l</d:slug></metadata></g><!-- generated by https://loading.io/ --></svg>